<svg xmlns="http://www.w3.org/2000/svg" viewBox="0 0 502.6 592.31"><defs><style>.cls-1{fill:#fffdfe;}.cls-2{fill:#fff;}</style></defs><g id="Capa_2" data-name="Capa 2"><g id="Capa_1-2" data-name="Capa 1"><path class="cls-1" d="M361.94,61.47s0,68.3-110.64,122.93C140.66,129.77,140.66,61.47,140.66,61.47,140.66,27.53,168.53,0,202.89,0A62.14,62.14,0,0,1,251.3,23.26,62.15,62.15,0,0,1,299.7,0C334.09,0,361.94,27.53,361.94,61.47Z"/><path class="cls-2" d="M97.72,576.38q0,8.07-6.53,11.9t-20.35,3.84a92.51,92.51,0,0,1-23.61-3.07,30.28,30.28,0,0,1-12.87,3.26q-7.09,0-10.36-3.64t-3.27-11.91q0-11.32,3.08-34.26t11.71-74.78l-6-11.71q12.87-8.07,22.85-8.06,8.45,0,8.45,10.17,0,2.69-5.57,36.09-5.57,35.13-8.16,52.22t-2.59,24a11.28,11.28,0,0,0,.19,2.49H75.06a84.35,84.35,0,0,0,20.93-5A28.26,28.26,0,0,1,97.72,576.38Z"/><path class="cls-2" d="M220.78,586.75q-6,5.37-12.87,5.37-6.53,0-10-4t-3.45-11.71a67.16,67.16,0,0,1,1.34-11.52l-1.92-1q-6.92,13.44-17.38,20.83a38.59,38.59,0,0,1-22.74,7.39,31.22,31.22,0,0,1-18.34-5.56,35.63,35.63,0,0,1-12.29-15.84A60.75,60.75,0,0,1,118.83,547a75.23,75.23,0,0,1,9.8-37.92,72.61,72.61,0,0,1,63.93-36.95,110,110,0,0,1,18,1.53,20.11,20.11,0,0,1,2.11,6.14,15.47,15.47,0,0,1,9.22-2.88,11.51,11.51,0,0,1,7.58,2.31,7.79,7.79,0,0,1,2.78,6.33,54.23,54.23,0,0,1-1.24,10.56q-1.26,6.15-4.13,18-4.6,19.4-7.1,33.59a166.76,166.76,0,0,0-2.5,29C217.32,581.25,218.47,584.57,220.78,586.75Zm-28.42-35.42q11.52-22.76,17.28-68.64-20.73.58-36,9.12a58.88,58.88,0,0,0-23.23,22.75,64,64,0,0,0-8,31.87q0,13.07,5.37,20.35t15.17,7.3Q180.84,574.08,192.36,551.33Z"/><path class="cls-2" d="M341.91,498.05,294.3,565.82l7.49,2.3q10.36,3.07,15.45,4.32a39,39,0,0,0,9.31,1.25l19.2-10.17q4,6.72,4,12.09,0,7.11-6.81,11.81a28.25,28.25,0,0,1-16.42,4.7,83.64,83.64,0,0,1-20.06-2.3,241.33,241.33,0,0,1-23.13-7.3,36.21,36.21,0,0,1-8.93,6.34,20.91,20.91,0,0,1-8.93,1.92,10.36,10.36,0,0,1-8.16-3.36,11.89,11.89,0,0,1-3-8.16,15.11,15.11,0,0,1,5-11q5-4.89,14.21-5.85l42.81-61.05c-1.41.12-3.65.19-6.72.19q-15.75-.19-25-2.11t-13.53-6.15q-4.32-4.22-4.32-11.52,0-3.45,2.11-10.55a228.47,228.47,0,0,0,29.28,9.59q16.78,4.43,25.82,4.8a23.78,23.78,0,0,1,7.87-9.69,18.11,18.11,0,0,1,10.75-3.74q6.13,0,9.7,3a10.1,10.1,0,0,1,3.55,8.16Q355.93,493.64,341.91,498.05Z"/><path class="cls-2" d="M400.75,585.88a41.34,41.34,0,0,1-16.12-17.66Q379,556.81,379,541.63q0-20.34,8.55-36.09A61.69,61.69,0,0,1,411.41,481q15.34-8.84,34.75-8.83a66.63,66.63,0,0,1,14.78,1.53c1.4,2.05,2.24,5.06,2.49,9q-19.2,0-32.83,7.68a51,51,0,0,0-20.73,21.41q-7.11,13.72-7.1,31.2,0,17.09,6.33,26.68t18,9.6a35,35,0,0,0,20.44-6.34q9.12-6.33,15-18A77.85,77.85,0,0,0,470,527.62q-7.87-5-11.42-11a26.77,26.77,0,0,1-3.55-14,17.54,17.54,0,0,1,4.41-12.19,14.15,14.15,0,0,1,10.94-4.9q8.84,0,13.83,7.87t5,21.89A87.31,87.31,0,0,1,480.62,554q-8.55,17.58-23.23,27.84A55.23,55.23,0,0,1,425,592.12Q411.21,592.12,400.75,585.88Z"/><path class="cls-2" d="M498.26,191.77c-.75-15.4-7-28-17.52-35.46-7.09-5-15.87-7.6-25.62-7.6a66.86,66.86,0,0,0-19.08,3,204.69,204.69,0,0,0-40.57,17.24c-16.65,9.22-33.25,18.92-49.43,28.5-3,1.82-6.09,3.6-9.11,5.39-4.61,2.74-9.19,5.45-13.83,8.13a4.4,4.4,0,0,1-.55.37L177.84,308.53c-.19.11-.36.25-.56.36-3.15,1.85-6.25,3.69-9.41,5.56-4.53,2.63-9.08,5.31-13.61,8-18.91,11.21-38.47,22.8-58,33.59a180,180,0,0,1-36.13,15.36c-10.62,3.16-19.61,2.66-25.4-1.42-6.17-4.42-7.82-12.41-8.13-18.33-2.21-46-4.39-95-4.27-143.08,0-12.55,1.95-28.78,11-34.7s25.12-1.29,36.94,3.74c12,5.14,42.55,20.37,67.05,32.58,8.36,4.16,16,8,22.24,11.06a11.16,11.16,0,0,0,15-5.19l0-.09a11.08,11.08,0,0,0-5.12-14.75c-6.17-3.05-13.8-6.87-22.13-11C121.21,177.18,91.68,162.43,79,157c-24.5-10.42-44-11.07-58-1.85S.06,182.29,0,208.5c-.11,48.65,2.07,97.9,4.31,144.2.75,15.4,7,28,17.54,35.49,7.1,5,15.85,7.57,25.62,7.57a66.28,66.28,0,0,0,19.06-2.94,202.78,202.78,0,0,0,40.57-17.24c16.65-9.22,33.25-18.94,49.45-28.49,3-1.82,6.09-3.61,9.11-5.4l14.25-8.43c3-1.76,6-3.52,8.94-5.26.2-.11.42-.25.59-.36L247,289a11,11,0,0,0,3.5,3.27c25,14.75,93.26,56.3,104.77,62.05,26.07,13,55.63,27.78,68.29,33.17,24.53,10.42,44,11,58,1.84s20.93-27.1,21-53.33C502.7,287.35,500.52,238.09,498.26,191.77Zm-29,178.87c-9.14,6-25.12,1.28-36.94-3.74-12.07-5.15-42.55-20.37-67.08-32.58-10.76-5.4-70-41.38-98.74-58.45l68.17-45.8.56-.33c4.36-2.55,8.69-5.14,13.05-7.71,18.91-11.18,38.5-22.78,58-33.56a181.09,181.09,0,0,1,36.1-15.37c10.62-3.15,19.64-2.65,25.4,1.43,6.2,4.41,7.85,12.4,8.13,18.33,2.23,46,4.41,95,4.3,143.08C480.21,348.48,478.28,364.69,469.29,370.64Z"/></g></g></svg>