<svg xmlns="http://www.w3.org/2000/svg" xmlns:xlink="http://www.w3.org/1999/xlink" version="1.1" width="256" height="256" viewBox="0 0 256 256" xml:space="preserve">

<defs>
</defs>
<g style="stroke: none; stroke-width: 0; stroke-dasharray: none; stroke-linecap: butt; stroke-linejoin: miter; stroke-miterlimit: 10; fill: none; fill-rule: nonzero; opacity: 1;" transform="translate(1.4065934065934016 1.4065934065934016) scale(2.81 2.81)" >
	<path d="M 65.28 64.301 H 39.272 c -1.104 0 -2 -0.896 -2 -2 s 0.896 -2 2 -2 H 63.28 v -35.42 c 0 -0.968 -0.788 -1.756 -1.756 -1.756 H 14.522 c -1.104 0 -2 -0.896 -2 -2 s 0.896 -2 2 -2 h 47.002 c 3.174 0 5.756 2.582 5.756 5.756 v 37.42 C 67.28 63.405 66.385 64.301 65.28 64.301 z" style="stroke: none; stroke-width: 1; stroke-dasharray: none; stroke-linecap: butt; stroke-linejoin: miter; stroke-miterlimit: 10; fill: rgb(0,0,0); fill-rule: nonzero; opacity: 1;" transform=" matrix(1 0 0 1 0 0) " stroke-linecap="round" />
	<path d="M 26.123 64.301 H 14.522 c -1.104 0 -2 -0.896 -2 -2 s 0.896 -2 2 -2 h 11.601 c 1.104 0 2 0.896 2 2 S 27.228 64.301 26.123 64.301 z" style="stroke: none; stroke-width: 1; stroke-dasharray: none; stroke-linecap: butt; stroke-linejoin: miter; stroke-miterlimit: 10; fill: rgb(0,0,0); fill-rule: nonzero; opacity: 1;" transform=" matrix(1 0 0 1 0 0) " stroke-linecap="round" />
	<path d="M 83.813 64.301 h -1.182 c -1.104 0 -2 -0.896 -2 -2 s 0.896 -2 2 -2 h 1.182 c 1.206 0 2.188 -0.981 2.188 -2.188 V 39.388 c 0 -2.212 -0.993 -4.271 -2.725 -5.648 l -5.361 -4.264 c -1.271 -1.012 -2.867 -1.569 -4.492 -1.569 H 67.28 v 32.395 h 2.201 c 1.104 0 2 0.896 2 2 s -0.896 2 -2 2 H 65.28 c -1.104 0 -2 -0.896 -2 -2 V 25.906 c 0 -1.104 0.896 -2 2 -2 h 8.142 c 2.526 0 5.006 0.866 6.982 2.438 l 5.361 4.264 C 88.457 32.749 90 35.949 90 39.388 v 18.726 C 90 61.525 87.225 64.301 83.813 64.301 z" style="stroke: none; stroke-width: 1; stroke-dasharray: none; stroke-linecap: butt; stroke-linejoin: miter; stroke-miterlimit: 10; fill: rgb(0,0,0); fill-rule: nonzero; opacity: 1;" transform=" matrix(1 0 0 1 0 0) " stroke-linecap="round" />
	<path d="M 88 46.329 H 75.08 c -2.439 0 -4.425 -1.985 -4.425 -4.425 V 25.906 c 0 -1.104 0.896 -2 2 -2 s 2 0.896 2 2 v 15.998 c 0 0.234 0.19 0.425 0.425 0.425 H 88 c 1.104 0 2 0.896 2 2 S 89.104 46.329 88 46.329 z" style="stroke: none; stroke-width: 1; stroke-dasharray: none; stroke-linecap: butt; stroke-linejoin: miter; stroke-miterlimit: 10; fill: rgb(0,0,0); fill-rule: nonzero; opacity: 1;" transform=" matrix(1 0 0 1 0 0) " stroke-linecap="round" />
	<path d="M 32.698 70.875 c -4.728 0 -8.575 -3.847 -8.575 -8.574 s 3.847 -8.574 8.575 -8.574 s 8.574 3.847 8.574 8.574 S 37.426 70.875 32.698 70.875 z M 32.698 57.727 c -2.522 0 -4.575 2.052 -4.575 4.574 s 2.052 4.574 4.575 4.574 s 4.574 -2.052 4.574 -4.574 S 35.22 57.727 32.698 57.727 z" style="stroke: none; stroke-width: 1; stroke-dasharray: none; stroke-linecap: butt; stroke-linejoin: miter; stroke-miterlimit: 10; fill: rgb(0,0,0); fill-rule: nonzero; opacity: 1;" transform=" matrix(1 0 0 1 0 0) " stroke-linecap="round" />
	<path d="M 76.057 70.875 c -4.729 0 -8.575 -3.847 -8.575 -8.574 s 3.847 -8.574 8.575 -8.574 c 4.728 0 8.574 3.847 8.574 8.574 S 80.784 70.875 76.057 70.875 z M 76.057 57.727 c -2.522 0 -4.575 2.052 -4.575 4.574 s 2.053 4.574 4.575 4.574 s 4.574 -2.052 4.574 -4.574 S 78.579 57.727 76.057 57.727 z" style="stroke: none; stroke-width: 1; stroke-dasharray: none; stroke-linecap: butt; stroke-linejoin: miter; stroke-miterlimit: 10; fill: rgb(0,0,0); fill-rule: nonzero; opacity: 1;" transform=" matrix(1 0 0 1 0 0) " stroke-linecap="round" />
	<path d="M 88 51.888 h -8.821 c -1.104 0 -2 -0.896 -2 -2 s 0.896 -2 2 -2 H 88 c 1.104 0 2 0.896 2 2 S 89.104 51.888 88 51.888 z" style="stroke: none; stroke-width: 1; stroke-dasharray: none; stroke-linecap: butt; stroke-linejoin: miter; stroke-miterlimit: 10; fill: rgb(0,0,0); fill-rule: nonzero; opacity: 1;" transform=" matrix(1 0 0 1 0 0) " stroke-linecap="round" />
	<circle cx="32.698" cy="62.298" r="1.668" style="stroke: none; stroke-width: 1; stroke-dasharray: none; stroke-linecap: butt; stroke-linejoin: miter; stroke-miterlimit: 10; fill: rgb(0,0,0); fill-rule: nonzero; opacity: 1;" transform="  matrix(1 0 0 1 0 0) "/>
	<circle cx="76.058" cy="62.298" r="1.668" style="stroke: none; stroke-width: 1; stroke-dasharray: none; stroke-linecap: butt; stroke-linejoin: miter; stroke-miterlimit: 10; fill: rgb(0,0,0); fill-rule: nonzero; opacity: 1;" transform="  matrix(1 0 0 1 0 0) "/>
	<path d="M 83.813 64.301 h -1.182 c -1.104 0 -2 -0.896 -2 -2 s 0.896 -2 2 -2 h 1.182 c 1.206 0 2.188 -0.981 2.188 -2.188 V 39.388 c 0 -2.212 -0.993 -4.271 -2.725 -5.648 l -5.361 -4.264 c -1.271 -1.012 -2.867 -1.569 -4.492 -1.569 H 67.28 v 32.395 h 2.201 c 1.104 0 2 0.896 2 2 s -0.896 2 -2 2 H 65.28 c -1.104 0 -2 -0.896 -2 -2 V 25.906 c 0 -1.104 0.896 -2 2 -2 h 8.142 c 2.526 0 5.006 0.866 6.982 2.438 l 5.361 4.264 C 88.457 32.749 90 35.949 90 39.388 v 18.726 C 90 61.525 87.225 64.301 83.813 64.301 z" style="stroke: none; stroke-width: 1; stroke-dasharray: none; stroke-linecap: butt; stroke-linejoin: miter; stroke-miterlimit: 10; fill: rgb(0,0,0); fill-rule: nonzero; opacity: 1;" transform=" matrix(1 0 0 1 0 0) " stroke-linecap="round" />
	<path d="M 31.03 52.329 H 7.911 c -1.104 0 -2 -0.896 -2 -2 s 0.896 -2 2 -2 H 31.03 c 1.104 0 2 0.896 2 2 S 32.134 52.329 31.03 52.329 z" style="stroke: none; stroke-width: 1; stroke-dasharray: none; stroke-linecap: butt; stroke-linejoin: miter; stroke-miterlimit: 10; fill: rgb(0,0,0); fill-rule: nonzero; opacity: 1;" transform=" matrix(1 0 0 1 0 0) " stroke-linecap="round" />
	<path d="M 26.675 35.097 H 10.181 c -1.104 0 -2 -0.896 -2 -2 s 0.896 -2 2 -2 h 16.494 c 1.104 0 2 0.896 2 2 S 27.779 35.097 26.675 35.097 z" style="stroke: none; stroke-width: 1; stroke-dasharray: none; stroke-linecap: butt; stroke-linejoin: miter; stroke-miterlimit: 10; fill: rgb(0,0,0); fill-rule: nonzero; opacity: 1;" transform=" matrix(1 0 0 1 0 0) " stroke-linecap="round" />
	<path d="M 45.276 54.324 c -0.307 0 -0.613 -0.07 -0.895 -0.211 C 36.081 49.962 31 43.549 30.791 36.958 c -0.115 -3.635 1.427 -6.742 4.126 -8.313 c 1.693 -0.985 5.213 -2.139 10.359 0.602 c 5.147 -2.741 8.667 -1.587 10.359 -0.602 c 2.699 1.571 4.241 4.679 4.126 8.313 c -0.209 6.592 -5.29 13.005 -13.591 17.156 C 45.889 54.254 45.583 54.324 45.276 54.324 z M 39.146 31.551 c -0.833 0 -1.583 0.182 -2.216 0.55 c -1.43 0.832 -2.21 2.556 -2.141 4.729 c 0.121 3.79 2.958 9.184 10.488 13.241 c 7.53 -4.056 10.367 -9.451 10.487 -13.24 c 0.069 -2.174 -0.711 -3.898 -2.141 -4.73 c -1.762 -1.025 -4.425 -0.604 -7.304 1.155 c -0.641 0.392 -1.446 0.392 -2.085 0 C 42.389 32.129 40.633 31.551 39.146 31.551 z" style="stroke: none; stroke-width: 1; stroke-dasharray: none; stroke-linecap: butt; stroke-linejoin: miter; stroke-miterlimit: 10; fill: rgb(0,0,0); fill-rule: nonzero; opacity: 1;" transform=" matrix(1 0 0 1 0 0) " stroke-linecap="round" />
	<path d="M 25.119 43.713 H 2 c -1.104 0 -2 -0.896 -2 -2 s 0.896 -2 2 -2 h 23.119 c 1.104 0 2 0.896 2 2 S 26.224 43.713 25.119 43.713 z" style="stroke: none; stroke-width: 1; stroke-dasharray: none; stroke-linecap: butt; stroke-linejoin: miter; stroke-miterlimit: 10; fill: rgb(0,0,0); fill-rule: nonzero; opacity: 1;" transform=" matrix(1 0 0 1 0 0) " stroke-linecap="round" />
</g>
</svg>