<svg xmlns="http://www.w3.org/2000/svg" viewBox="0 0 27.62 19.34"><defs><style>.cls-1{fill:#fff;}</style></defs><title>Recurso 7icono-new</title><g id="Capa_2" data-name="Capa 2"><g id="Capa_1-2" data-name="Capa 1"><path class="cls-1" d="M11.06,13.81V5.53l7.19,4.14ZM27.05,3A3.44,3.44,0,0,0,24.62.59C22.46,0,13.81,0,13.81,0S5.17,0,3,.57A3.52,3.52,0,0,0,.57,3,36.35,36.35,0,0,0,0,9.67a36.17,36.17,0,0,0,.57,6.64A3.46,3.46,0,0,0,3,18.75c2.19.59,10.81.59,10.81.59s8.65,0,10.81-.57a3.45,3.45,0,0,0,2.43-2.43,36.44,36.44,0,0,0,.57-6.65A33.89,33.89,0,0,0,27.05,3Z"/></g></g></svg>